<?xml version="1.0" standalone="no"?><!DOCTYPE svg PUBLIC "-//W3C//DTD SVG 1.1//EN" "http://www.w3.org/Graphics/SVG/1.1/DTD/svg11.dtd"><svg t="1660188918358" class="icon" viewBox="0 0 1024 1024" version="1.1" xmlns="http://www.w3.org/2000/svg" p-id="3381" xmlns:xlink="http://www.w3.org/1999/xlink" width="200" height="200"><defs><style type="text/css">@font-face { font-family: feedback-iconfont; src: url("//at.alicdn.com/t/font_1031158_u69w8yhxdu.woff2?t=1630033759944") format("woff2"), url("//at.alicdn.com/t/font_1031158_u69w8yhxdu.woff?t=1630033759944") format("woff"), url("//at.alicdn.com/t/font_1031158_u69w8yhxdu.ttf?t=1630033759944") format("truetype"); }
</style></defs><path d="M511.99619 1024c-108.044689 0-186.923941-6.102799-234.44349-18.148399-19.508386-4.937096-34.285389-11.017038-45.142429-18.559824-17.142695-11.874173-22.856926-26.034039-24.639766-35.816803l-0.22857-1.245703L131.188374 367.4348A57.393741 57.393741 0 0 1 110.377143 323.206648v-23.839774a57.599454 57.599454 0 0 1 57.62231-57.496597h85.827758c6.308512-6.925649 12.468453-16.13699 19.325531-26.376893 10.41133-15.531281 22.194075-33.142543 39.222485-50.456664s40.273904-24.399769 60.67371-30.536853c6.971362-2.091409 17.142695-5.154237 21.656937-7.417073a373.71074 373.71074 0 0 0 34.845384-54.342341c19.428387-37.713928 49.085249-43.359589 65.039383-43.359589 34.285389 0 62.38798 23.999772 97.976213 54.422341 7.017076 5.999943 14.285579 12.205598 21.954078 18.559824 6.754222 5.57709 24.616909 11.291321 39.691052 15.999848l10.754183-97.930499A22.856926 22.856926 0 0 1 690.280213 0.146856l122.650265 13.474158A22.925497 22.925497 0 0 1 833.204571 38.866488l-22.296931 202.969504h45.142429a57.599454 57.599454 0 0 1 57.565168 57.496597v23.874059a57.393741 57.393741 0 0 1-20.811231 44.228152l-76.353561 582.851614-0.22857 1.245702c-1.817126 9.782764-7.554214 23.999772-24.639766 35.816803-10.868468 7.542786-25.634043 13.622728-45.142429 18.559824C698.920131 1017.897201 620.040879 1024 511.99619 1024z" fill="#25467A" p-id="3382"></path><path d="M710.325737 50.489235l73.233591 8.03421-90.147716 820.81507-75.005003 8.10278 91.919128-836.95206z" fill="#BCAAA4" p-id="3383"></path><path d="M170.822284 308.578215l83.42778 636.462534s6.182798 33.451111 257.79184 33.451111 257.746126-33.46254 257.746126-33.462539l83.42778-636.462534z" fill="#E7F7FE" p-id="3384"></path><path d="M747.605383 925.943787c-11.554176 7.439929-60.479426 29.176866-235.609193 29.176866s-223.997875-21.71408-235.609193-29.039724L210.467622 354.05207h603.057136z" fill="#FFCDD2" p-id="3385"></path><path d="M813.524758 354.05207L747.605383 925.943787c-11.554176 7.428501-60.479426 29.176866-235.609193 29.176866q-10.994181 0-21.314084-0.102856c147.187175-1.737126 175.792618-25.794041 186.078235-33.611109l55.54233-569.137458z" fill="#FFBDC3" p-id="3386"></path><path d="M210.467622 354.05207l65.930803 571.891717c11.542748 7.428501 60.467998 29.176866 235.597765 29.176866q10.994181 0 21.325512-0.102856c-147.198604-1.737126-175.792618-25.794041-186.089663-33.611109l-55.530902-569.137458z" fill="#FFBDC3" p-id="3387"></path><path d="M471.996569 94.774529a425.218823 425.218823 0 0 1-41.542463 64.376533c-15.908421 20.628376-66.285085 21.48551-84.376342 39.85105-30.091143 30.593995-42.536739 65.839375-70.022193 87.530598-45.06243 35.553948-65.610806 67.519359-65.610806 67.51936s17.062695 19.325531 50.033811 19.325531 26.159752-18.194113 80.742091-18.194113 40.936755 21.611224 86.433466 21.611223 53.61092-19.336959 84.3192-19.336959 38.856774 19.336959 84.3192 19.336959 31.851126-21.611224 86.433466-21.611223 47.759547 18.194113 80.742091 18.194113 50.033811-19.325531 50.033811-19.325531-12.994162-26.754032-54.296628-74.525007c-14.674147-16.982696-36.171085-58.342304-57.142315-85.187764S614.852357 164.88815 584.178362 139.436963c-57.32517-47.428121-91.016279-85.713473-112.181793-44.662434z" fill="#FFE0E5" p-id="3388"></path><path d="M567.995659 373.720455c-22.696928-5.462805-33.01683-16.228417-55.942327-16.228418-30.696852 0-38.856774 19.325531-84.330628 19.325531-21.496939 0-29.794003-4.83424-38.308208-9.919906a239.323444 239.323444 0 0 0 38.308208-59.428007c27.21117-60.639425 22.856926-120.318859 14.788431-164.455583A407.858988 407.858988 0 0 0 468.979455 100.580189c49.656672 56.696605 125.461667 185.232528 99.016204 273.140266z" fill="#FFF5F6" p-id="3389"></path><path d="M856.918632 333.560836H167.073748a9.645623 9.645623 0 0 1-9.702765-9.645623v-23.896916a9.645623 9.645623 0 0 1 9.702765-9.645623h689.844884a9.645623 9.645623 0 0 1 9.702765 9.645623v23.896916a9.645623 9.645623 0 0 1-9.702765 9.645623z" fill="#EAF8FE" p-id="3390"></path><path d="M511.99619 721.762867a64.079392 64.079392 0 0 1-63.999393-63.999393 12.811307 12.811307 0 0 1 25.611186 0 38.422493 38.422493 0 1 0 76.833557 0 12.811307 12.811307 0 0 1 25.611185 0 63.999393 63.999393 0 0 1-63.999393 63.999393zM345.517769 555.284447a38.422493 38.422493 0 1 0 38.479635-38.411065 38.422493 38.422493 0 0 0-38.479635 38.411065zM601.629625 555.284447a38.422493 38.422493 0 1 0 76.833557 0.057142v-0.057142a38.422493 38.422493 0 1 0-76.833557-0.057143z" fill="#25467A" p-id="3391"></path><path d="M332.717891 619.318125h-51.222371a25.611186 25.611186 0 1 0 0 51.222371h51.222371a25.611186 25.611186 0 0 0 0-51.222371z m409.778969 0h-51.222371a25.611186 25.611186 0 1 0 0 51.222371h51.222371a25.611186 25.611186 0 0 0 0-51.222371z" fill="#F48FB1" p-id="3392"></path></svg>